<?xml version="1.0" standalone="no"?><!DOCTYPE svg PUBLIC "-//W3C//DTD SVG 1.1//EN" "http://www.w3.org/Graphics/SVG/1.1/DTD/svg11.dtd"><svg t="1566098665222" class="icon" viewBox="0 0 1024 1024" version="1.1" xmlns="http://www.w3.org/2000/svg" p-id="8824" xmlns:xlink="http://www.w3.org/1999/xlink" width="64" height="64"><defs><style type="text/css"></style></defs><path d="M933.7 808.3L692.6 567.1c6.7-11.7 12.7-23.8 18-36.3C728.1 489.4 737 445.3 737 400s-8.9-89.3-26.4-130.8c-16.9-40-41.1-75.9-72-106.8s-66.8-55.1-106.8-72C490.4 72.9 446.3 64 401 64s-89.3 8.9-130.8 26.4c-40 16.9-75.9 41.1-106.8 72s-55.1 66.8-72 106.8C73.9 310.7 65 354.7 65 400s8.9 89.3 26.4 130.8c16.9 40 41.1 75.9 72 106.8s66.8 55.1 106.8 72C311.7 727.1 355.7 736 401 736s89.3-8.9 130.8-26.4c12.5-5.3 24.6-11.3 36.3-18l241.2 241.2c34.2 34.2 90.2 34.2 124.5 0 34.2-34.3 34.2-90.3-0.1-124.5zM401 656c-141.2 0-256-114.8-256-256s114.8-256 256-256 256 114.8 256 256-114.8 256-256 256z" p-id="8825" fill="#ffffff"></path></svg>